<svg width="111" height="24" viewBox="0 0 111 24" fill="none" xmlns="http://www.w3.org/2000/svg">
<path d="M23.088 0.855999V23H20.176V6.488L12.816 23H10.768L3.376 6.456V23H0.464V0.855999H3.6L11.792 19.16L19.984 0.855999H23.088ZM35.6745 23.288C34.0318 23.288 32.5385 22.9147 31.1945 22.168C29.8718 21.4213 28.8265 20.3653 28.0585 19C27.3118 17.6133 26.9385 16.0133 26.9385 14.2C26.9385 12.408 27.3225 10.8293 28.0905 9.464C28.8798 8.07733 29.9465 7.02133 31.2905 6.296C32.6345 5.54933 34.1385 5.176 35.8025 5.176C37.4665 5.176 38.9705 5.54933 40.3145 6.296C41.6585 7.02133 42.7145 8.06667 43.4825 9.432C44.2718 10.7973 44.6665 12.3867 44.6665 14.2C44.6665 16.0133 44.2612 17.6133 43.4505 19C42.6612 20.3653 41.5838 21.4213 40.2185 22.168C38.8532 22.9147 37.3385 23.288 35.6745 23.288ZM35.6745 20.728C36.7198 20.728 37.7012 20.4827 38.6185 19.992C39.5358 19.5013 40.2718 18.7653 40.8265 17.784C41.4025 16.8027 41.6905 15.608 41.6905 14.2C41.6905 12.792 41.4132 11.5973 40.8585 10.616C40.3038 9.63467 39.5785 8.90933 38.6825 8.44C37.7865 7.94933 36.8158 7.704 35.7705 7.704C34.7038 7.704 33.7225 7.94933 32.8265 8.44C31.9518 8.90933 31.2478 9.63467 30.7145 10.616C30.1812 11.5973 29.9145 12.792 29.9145 14.2C29.9145 15.6293 30.1705 16.8347 30.6825 17.816C31.2158 18.7973 31.9198 19.5333 32.7945 20.024C33.6692 20.4933 34.6292 20.728 35.6745 20.728ZM55.0233 20.312L60.4633 5.464H63.5673L56.6873 23H53.2953L46.4153 5.464H49.5513L55.0233 20.312ZM82.4328 13.56C82.4328 14.1147 82.4008 14.7013 82.3368 15.32H68.3208C68.4274 17.048 69.0141 18.4027 70.0808 19.384C71.1688 20.344 72.4808 20.824 74.0168 20.824C75.2754 20.824 76.3208 20.536 77.1528 19.96C78.0061 19.3627 78.6034 18.5733 78.9448 17.592H82.0808C81.6114 19.2773 80.6728 20.6533 79.2648 21.72C77.8568 22.7653 76.1074 23.288 74.0168 23.288C72.3528 23.288 70.8594 22.9147 69.5368 22.168C68.2354 21.4213 67.2114 20.3653 66.4648 19C65.7181 17.6133 65.3448 16.0133 65.3448 14.2C65.3448 12.3867 65.7074 10.7973 66.4328 9.432C67.1581 8.06667 68.1714 7.02133 69.4728 6.296C70.7954 5.54933 72.3101 5.176 74.0168 5.176C75.6808 5.176 77.1528 5.53867 78.4328 6.264C79.7128 6.98933 80.6941 7.992 81.3768 9.272C82.0808 10.5307 82.4328 11.96 82.4328 13.56ZM79.4248 12.952C79.4248 11.8427 79.1794 10.8933 78.6888 10.104C78.1981 9.29333 77.5261 8.68533 76.6728 8.28C75.8408 7.85333 74.9128 7.64 73.8888 7.64C72.4168 7.64 71.1581 8.10933 70.1128 9.048C69.0888 9.98667 68.5021 11.288 68.3528 12.952H79.4248ZM89.1885 0.695999V23H86.2765V0.695999H89.1885ZM97.7035 7.864V18.2C97.7035 19.0533 97.8848 19.6613 98.2475 20.024C98.6102 20.3653 99.2395 20.536 100.135 20.536H102.28V23H99.6555C98.0342 23 96.8182 22.6267 96.0075 21.88C95.1968 21.1333 94.7915 19.9067 94.7915 18.2V7.864H92.5195V5.464H94.7915V1.048H97.7035V5.464H102.28V7.864H97.7035ZM109.584 0.695999L109.232 16.696H106.8L106.448 0.695999H109.584ZM108.144 23.192C107.589 23.192 107.12 23 106.736 22.616C106.352 22.232 106.16 21.7627 106.16 21.208C106.16 20.6533 106.352 20.184 106.736 19.8C107.12 19.416 107.589 19.224 108.144 19.224C108.677 19.224 109.125 19.416 109.488 19.8C109.872 20.184 110.064 20.6533 110.064 21.208C110.064 21.7627 109.872 22.232 109.488 22.616C109.125 23 108.677 23.192 108.144 23.192Z" fill="black"/>
</svg>
